#!OML:ASF F:\VICON\USERDATA\INSTALL\Justin_Nancy\Justin_Nancy.ASF
:FULLY-SPECIFIED
:DEGREES
150
root -2.41574 17.2019 9.18487 -48.7266 -88.2001 59.5943
lowerback 10.2685 3.4073 3.48641
upperback -1.07977 5.08392 2.04674
thorax -6.78173 2.38144 -0.60472
lowerneck -21.5474 -6.91784 -11.1617
upperneck 17.8239 -7.86466 8.08839
head 9.99452 -3.51009 3.47724
rclavicle -2.62396e-014 -1.43125e-014
rhumerus -41.9717 22.6707 -97.1872
rradius 109.117
rwrist -14.0489
rhand -6.22464 21.3639
rfingers 7.12502
rthumb 19.6164 -7.66647
lclavicle -2.62396e-014 -1.43125e-014
lhumerus -58.2871 -1.95966 93.5627
lradius 115.168
lwrist 23.3313
lhand -12.058 9.15015
lfingers 7.12502
lthumb 14.0011 38.6586
rfemur 7.75474 7.20279 30.404
rtibia 37.6822
rfoot 13.856 -0.0991073
rtoes 5.01177
lfemur -36.4071 -0.0907785 -7.30795
ltibia 32.9766
lfoot -6.25381 -11.2264
ltoes -21.4713
151
root -2.73859 17.1631 9.26688 -83.58 -88.2203 94.2523
lowerback 10.1213 3.76216 3.26693
upperback -0.828107 5.48624 1.57756
thorax -6.39095 2.59207 -1.01302
lowerneck -21.4841 -7.2979 -11.3619
upperneck 17.182 -8.48806 8.93264
head 9.87425 -3.71701 3.70421
rclavicle -4.65156e-014 9.54166e-015
rhumerus -41.8112 21.529 -97.0666
rradius 108.51
rwrist -13.6776
rhand -6.02931 21.1502
rfingers 7.12502
rthumb 19.8042 -7.86086
lclavicle -4.65156e-014 9.54166e-015
lhumerus -57.4339 -2.7445 93.1065
lradius 116.554
lwrist 23.5236
lhand -11.872 9.51276
lfingers 7.12502
lthumb 14.1803 39.0088
rfemur 6.29366 7.40021 29.6794
rtibia 41.8514
rfoot 12.2273 -0.808937
rtoes 3.90456
lfemur -35.9627 0.241432 -8.26602
ltibia 33.4471
lfoot -5.9342 -11.3523
ltoes -18.8608
152
root -3.06244 17.121 9.3416 -110.748 -87.7456 121.052
lowerback 10.1957 4.01824 2.83258
upperback -0.570177 5.75423 1.34292
thorax -6.16747 2.74209 -1.05141
lowerneck -21.5877 -7.44523 -11.5475
upperneck 16.789 -8.7197 9.49111
head 9.81848 -3.7721 3.89004
rclavicle -6.87795e-014 6.36111e-015
rhumerus -41.8394 20.8999 -96.8255
rradius 107.974
rwrist -13.4828
rhand -5.85079 21.0815
rfingers 7.12502
rthumb 19.9758 -7.91172
lclavicle -6.87795e-014 6.36111e-015
lhumerus -56.6426 -3.12052 92.7468
lradius 117.826
lwrist 23.2411
lhand -10.6954 9.31687
lfingers 7.12502
lthumb 15.3139 38.7299
rfemur 4.85866 7.64935 29.0954
rtibia 46.0609
rfoot 11.0802 -1.9203
rtoes 4.08063
lfemur -35.3659 0.642848 -9.19422
ltibia 34.4125
lfoot -6.20354 -11.642
ltoes -14.0601
153
root -3.38436 17.0771 9.41165 -122.367 -87.1956 132.185
lowerback 10.4714 4.07122 2.08249
upperback -0.402634 5.74084 1.42137
thorax -6.22759 2.75983 -0.569514
lowerneck -21.4421 -7.29203 -11.4084
upperneck 16.474 -8.53403 9.45938
head 9.65225 -3.68569 3.88674
rclavicle -1.70955e-014 -2.38542e-014
rhumerus -42.3085 20.8062 -96.4258
rradius 107.472
rwrist -13.3709
rhand -6.0797 21.3458
rfingers 7.12502
rthumb 19.7557 -7.67026
lclavicle -1.70955e-014 -2.38542e-014
lhumerus -55.9714 -2.92482 92.7104
lradius 119.096
lwrist 23.2699
lhand -10.0698 9.29357
lfingers 7.12502
lthumb 15.9165 38.6595
rfemur 3.43873 7.20996 28.4817
rtibia 50.1835
rfoot 10.3721 -2.71215
rtoes 3.38397
lfemur -34.7696 0.815527 -9.9734
ltibia 35.942
lfoot -6.95762 -11.4963
ltoes -10.0916
154
root -3.70225 17.0342 9.48613 -127.652 -86.5798 136.983
lowerback 10.791 4.07689 1.46108
upperback -0.236318 5.67086 1.3781
thorax -6.28852 2.7433 -0.278841
lowerneck -21.0536 -7.09115 -11.1102
upperneck 15.8737 -8.32594 9.37924
head 9.33322 -3.59175 3.84519
rclavicle -7.4743e-014 -2.22639e-014
rhumerus -42.5277 20.2474 -96.1454
rradius 106.766
rwrist -13.059
rhand -6.15464 21.3243
rfingers 7.12502
rthumb 19.6837 -7.69913
lclavicle -7.4743e-014 -2.22639e-014
lhumerus -55.1528 -2.84894 92.6731
lradius 120.414
lwrist 23.7394
lhand -10.7481 9.59509
lfingers 7.12502
lthumb 15.2632 39.012
rfemur 1.9646 6.444 27.5791
rtibia 54.2097
rfoot 9.7094 -3.27384
rtoes 3.94802
lfemur -34.1304 0.860193 -10.8145
ltibia 37.9687
lfoot -7.97735 -10.4121
ltoes -9.31741
155
root -4.01063 16.9765 9.56462 -130.199 -86.0712 138.96
lowerback 11.2426 4.12531 1.08996
upperback -0.0469488 5.68066 1.24199
thorax -6.36373 2.75485 -0.243743
lowerneck -20.896 -6.97311 -10.681
upperneck 15.6085 -8.24703 9.17989
head 9.17599 -3.55527 3.71877
rclavicle 1.74931e-014 2.54444e-014
rhumerus -42.803 19.3433 -95.7212
rradius 106.192
rwrist -12.8856
rhand -6.17098 21.3189
rfingers 7.12502
rthumb 19.668 -7.70615
lclavicle 1.74931e-014 2.54444e-014
lhumerus -54.1985 -3.31838 92.6695
lradius 121.813
lwrist 24.4826
lhand -11.5626 9.70074
lfingers 7.12502
lthumb 14.4785 39.1756
rfemur 0.481624 5.93456 26.7547
rtibia 58.1823
rfoot 8.92326 -4.47738
rtoes 7.7476
lfemur -33.3634 0.620387 -11.5661
ltibia 40.2173
lfoot -9.77795 -9.11553
ltoes -11.4585
156
root -4.30894 16.8982 9.64806 -130.941 -85.644 139.09
lowerback 11.8484 4.13471 0.659731
upperback 0.119096 5.63205 1.16595
thorax -6.56197 2.73772 -0.116492
lowerneck -20.9485 -6.87394 -10.3519
upperneck 15.523 -8.11815 8.81938
head 9.10944 -3.51153 3.5582
rclavicle 7.15625e-015 -4.77083e-015
rhumerus -43.2749 18.7473 -95.0528
rradius 105.777
rwrist -13.3758
rhand -6.56817 21.4758
rfingers 7.12502
rthumb 19.2861 -7.58784
lclavicle 7.15625e-015 -4.77083e-015
lhumerus -53.1268 -3.71283 92.7259
lradius 123.077
lwrist 25.0235
lhand -11.6708 9.46578
lfingers 7.12502
lthumb 14.3743 38.9481
rfemur -1.08949 5.4178 26.0439
rtibia 62.0959
rfoot 8.17174 -5.85256
rtoes 9.43309
lfemur -32.579 0.0523768 -12.2025
ltibia 42.3628
lfoot -12.025 -8.34754
ltoes -13.6014
157
root -4.6121 16.8218 9.73472 -132.543 -84.9817 139.993
lowerback 12.5006 4.1382 0.088298
upperback 0.317701 5.54876 1.10769
thorax -6.76542 2.70775 0.112861
lowerneck -20.5833 -6.8714 -10.4083
upperneck 14.8498 -8.07912 8.79903
head 8.8124 -3.51039 3.5685
rclavicle 1.74931e-014 6.36111e-015
rhumerus -43.1599 17.6773 -94.5167
rradius 104.865
rwrist -13.9079
rhand -6.64378 21.6879
rfingers 7.12502
rthumb 19.2134 -7.38301
lclavicle 1.74931e-014 6.36111e-015
lhumerus -51.9421 -3.86128 92.8799
lradius 124.206
lwrist 25.3219
lhand -11.596 9.30312
lfingers 7.12502
lthumb 14.4463 38.7803
rfemur -2.66112 4.80149 25.1956
rtibia 65.91
rfoot 7.64111 -6.1138
rtoes 6.27425
lfemur -31.5074 -0.524954 -12.9218
ltibia 44.1765
lfoot -14.0257 -7.29678
ltoes -15.8227
158
root -4.92226 16.7595 9.82582 -131.883 -84.1173 138.755
lowerback 12.968 4.08316 -0.523836
upperback 0.511528 5.36287 0.876608
thorax -6.85275 2.6283 0.218541
lowerneck -20.1581 -6.75741 -10.0094
upperneck 14.1387 -7.97556 8.53056
head 8.45727 -3.48017 3.43182
rclavicle -3.24019e-014 1.59028e-015
rhumerus -42.6952 15.9932 -94.4035
rradius 103.548
rwrist -14.101
rhand -6.99299 21.9866
rfingers 7.12502
rthumb 18.8776 -7.11732
lclavicle -3.24019e-014 1.59028e-015
lhumerus -50.6546 -4.01282 92.8437
lradius 125.153
lwrist 25.7907
lhand -11.0701 9.0491
lfingers 7.12502
lthumb 14.953 38.4893
rfemur -4.42533 4.16184 23.8269
rtibia 69.5934
rfoot 6.5054 -5.72841
rtoes 5.70029
lfemur -30.2776 -1.30311 -13.9328
ltibia 45.5314
lfoot -15.5357 -5.87178
ltoes -17.8872
159
root -5.22669 16.7018 9.92424 -128.665 -83.291 135.288
lowerback 13.1443 3.95395 -1.22071
upperback 0.622031 5.06363 0.601785
thorax -6.86425 2.49806 0.36631
lowerneck -20.3326 -6.48047 -9.39626
upperneck 14.2242 -7.63324 7.89429
head 8.42828 -3.34369 3.16361
rclavicle -2.127e-014 1.27222e-014
rhumerus -42.5241 14.447 -94.1922
rradius 102.301
rwrist -14.3945
rhand -7.934 22.5493
rfingers 7.12502
rthumb 17.9723 -6.64031
lclavicle -2.127e-014 1.27222e-014
lhumerus -49.1172 -4.12798 92.7296
lradius 125.812
lwrist 26.7136
lhand -10.1346 8.7082
lfingers 7.12502
lthumb 15.8541 38.0791
rfemur -6.77431 3.22892 21.9869
rtibia 73.1828
rfoot 5.01634 -5.12424
rtoes 9.00295
lfemur -29.2623 -2.36686 -15.1143
ltibia 46.4307
lfoot -16.9384 -5.18619
ltoes -18.0566
